<?xml version="1.0" standalone="no"?>
<!DOCTYPE svg PUBLIC "-//W3C//DTD SVG 20010904//EN"
 "http://www.w3.org/TR/2001/REC-SVG-20010904/DTD/svg10.dtd">
<svg version="1.0" xmlns="http://www.w3.org/2000/svg"
 width="250.000000pt" height="250.000000pt" viewBox="0 0 250.000000 250.000000"
 preserveAspectRatio="xMidYMid meet">

<g transform="translate(0.000000,250.000000) scale(0.100000,-0.100000)"
fill="#000000" stroke="none">
<path d="M125 2420 c-3 -5 -1 -10 4 -10 6 0 11 5 11 10 0 6 -2 10 -4 10 -3 0
-8 -4 -11 -10z"/>
<path d="M53 2414 c4 -7 0 -15 -9 -18 -9 -3 -14 -13 -11 -21 4 -9 1 -12 -9 -8
-7 3 -14 0 -14 -6 0 -6 6 -11 13 -11 8 0 7 -3 -3 -10 -8 -5 -15 -23 -15 -40
-1 -33 12 -50 24 -31 5 8 14 4 28 -11 20 -21 20 -25 7 -48 -9 -14 -13 -17 -10
-7 3 11 0 17 -10 17 -8 0 -17 7 -20 15 -4 8 -11 15 -16 15 -6 0 -5 -6 2 -15 8
-9 8 -15 2 -15 -7 0 -11 -64 -12 -185 -1 -158 1 -184 14 -179 17 7 16 -20 -2
-38 -17 -17 -15 -33 3 -18 11 9 15 9 15 1 0 -6 -7 -14 -15 -17 -11 -5 -15 -21
-15 -59 0 -48 13 -81 22 -55 2 6 9 0 17 -12 13 -22 13 -22 -4 -8 -17 14 -18
13 -12 -3 4 -11 1 -20 -8 -23 -13 -5 -15 -72 -15 -494 0 -382 3 -489 13 -493
9 -3 8 -8 -3 -22 -14 -17 -13 -18 2 -12 10 3 18 2 18 -3 0 -6 -7 -10 -16 -10
-14 0 -15 -2 -3 -17 10 -12 11 -15 1 -9 -10 6 -12 -41 -11 -241 1 -139 5 -239
9 -227 5 12 13 25 19 29 8 4 8 12 0 26 -9 18 -8 19 9 8 21 -13 19 -44 -4 -53
-8 -3 -14 -14 -14 -25 0 -11 -5 -23 -10 -26 -6 -3 -10 -17 -10 -31 0 -17 6
-24 19 -24 11 0 22 6 25 13 5 9 7 9 12 0 7 -16 48 -17 76 -2 15 8 19 8 14 0
-4 -6 0 -11 8 -11 9 0 16 7 16 15 0 8 4 15 10 15 5 0 7 -6 4 -13 -3 -10 4 -14
26 -15 21 0 28 3 23 11 -14 24 -14 89 0 100 17 14 29 57 17 57 -5 0 -8 13 -8
29 1 20 5 28 14 24 9 -3 14 2 14 13 0 9 7 26 17 36 9 11 11 18 5 18 -7 0 -17
-9 -24 -20 -7 -11 -16 -20 -20 -20 -4 0 7 27 25 61 17 33 39 75 48 91 9 17 19
27 22 21 3 -5 -3 -22 -14 -39 -21 -32 -25 -49 -9 -39 5 3 17 2 27 -3 14 -9 14
-11 -7 -22 -18 -9 -24 -9 -30 0 -5 8 -10 8 -14 2 -3 -5 1 -12 9 -16 21 -8 19
-25 -8 -47 -22 -19 -22 -19 10 -2 29 16 62 11 37 -5 -20 -13 -24 -43 -9 -58 8
-9 15 -11 15 -5 0 6 7 8 15 5 8 -4 15 -18 15 -33 0 -20 -2 -23 -10 -11 -7 11
-10 11 -10 2 0 -7 -4 -11 -9 -8 -5 3 -12 -10 -15 -29 -8 -41 -27 -45 -53 -12
-16 21 -19 22 -35 8 -23 -20 -24 -38 0 -20 14 11 15 11 4 -1 -14 -17 -16 -50
-2 -50 6 0 10 6 10 13 0 8 3 7 10 -3 6 -9 6 -18 0 -24 -17 -17 -11 -26 20 -26
25 0 30 4 30 23 0 32 29 89 43 84 6 -2 14 -14 18 -28 7 -24 7 -24 8 3 1 19 5
26 15 22 22 -9 29 15 12 41 -24 37 -19 44 8 11 l23 -30 7 40 c6 32 5 41 -10
49 -9 5 -31 22 -47 36 l-30 26 16 42 c19 46 24 107 7 81 -8 -12 -10 -13 -10
-1 0 8 -8 23 -17 33 -16 18 -16 18 13 3 38 -20 44 -19 44 6 0 14 -5 19 -15 16
-8 -4 -17 -2 -20 3 -4 6 5 10 19 10 19 0 24 4 19 16 -3 9 -2 19 3 23 6 3 25
42 44 86 35 82 76 156 117 211 13 17 20 34 16 38 -4 4 1 4 11 0 13 -5 17 -4
13 3 -4 7 0 9 10 7 11 -3 69 28 138 71 129 82 214 125 245 125 10 0 38 15 62
33 l43 33 3 87 c4 111 -7 153 -36 149 -18 -3 -26 5 -37 32 -8 19 -15 46 -14
58 0 13 3 17 6 10 4 -10 8 -10 20 -1 12 10 16 10 24 -2 7 -11 9 -11 9 4 0 9 5
17 10 17 6 0 10 7 10 15 0 25 17 17 30 -15 15 -36 55 -70 81 -70 13 0 19 -7
19 -21 0 -17 4 -19 23 -13 33 12 77 7 97 -11 9 -8 25 -15 36 -15 17 -1 17 -2
3 -10 -9 -5 -44 -8 -78 -7 -55 2 -61 1 -61 -18 0 -15 7 -21 30 -22 18 -1 28 2
25 7 -4 6 -3 10 2 11 39 4 85 3 100 -2 14 -5 11 -9 -17 -17 l-35 -10 33 -1
c37 -1 35 -21 -2 -21 -22 0 -54 -25 -44 -35 2 -3 18 -6 34 -9 69 -9 85 -35 34
-56 -17 -7 -33 -10 -36 -7 -3 3 -23 0 -43 -8 -21 -7 -49 -11 -64 -8 -25 5 -26
4 -14 -20 6 -14 15 -23 19 -21 4 3 12 -5 18 -16 7 -13 7 -20 0 -20 -15 0 -12
-16 5 -34 20 -19 19 -29 -5 -51 -11 -10 -20 -15 -20 -12 0 4 -9 -1 -20 -11
-18 -15 -19 -18 -5 -28 8 -6 15 -14 15 -18 0 -19 33 -36 75 -38 38 -3 47 -7
51 -26 6 -23 19 -29 29 -12 10 16 43 12 55 -7 9 -16 10 -15 5 5 -8 27 -1 28
26 1 17 -17 18 -23 7 -37 -11 -15 -10 -15 8 0 11 10 24 18 27 18 14 0 6 -29
-10 -39 -13 -7 -14 -10 -4 -11 11 0 13 -14 8 -69 -8 -99 -48 -292 -59 -285 -5
3 -20 -1 -33 -10 -33 -22 -67 -21 -63 1 2 13 13 18 38 18 32 0 35 3 38 33 2
18 -1 32 -7 32 -6 0 -11 -4 -11 -10 0 -5 -12 -10 -26 -10 -19 0 -25 4 -22 18
3 13 13 17 46 15 35 -1 42 1 42 16 0 14 -10 20 -41 25 -62 10 -74 -2 -75 -76
0 -35 -4 -77 -8 -94 l-7 -32 48 5 c26 3 54 10 61 16 8 7 12 5 12 -7 0 -9 -6
-16 -14 -16 -22 0 -26 -14 -16 -51 15 -50 -7 -218 -31 -245 l-19 -21 50 -2 50
-1 -2 39 c-2 54 79 280 109 304 24 19 33 80 13 92 -6 4 -8 10 -5 15 7 11 10
37 26 193 14 136 3 226 -36 302 -12 25 -21 45 -19 45 2 0 45 -21 94 -47 146
-75 181 -120 224 -285 32 -124 79 -376 71 -387 -13 -22 -113 -44 -197 -45
l-87 -1 -15 -35 c-8 -19 -17 -63 -21 -98 -3 -35 -9 -70 -12 -78 -5 -13 7 -15
75 -13 63 1 79 5 75 15 -3 8 -8 14 -12 14 -16 0 -28 48 -30 113 -1 54 2 67 14
67 25 0 66 -32 61 -46 -3 -8 -2 -14 3 -14 9 0 20 -39 27 -99 3 -21 0 -37 -8
-42 -7 -5 134 -9 315 -9 l327 0 0 495 c0 418 -2 495 -14 495 -12 0 -12 7 0 47
18 58 20 808 2 797 -6 -4 -8 2 -3 16 5 15 2 26 -6 31 -12 8 -11 11 1 22 8 6
16 29 17 49 2 36 1 36 -19 20 -11 -9 -26 -22 -32 -29 -8 -8 -15 -7 -29 4 -9 9
-17 12 -17 6 0 -5 -16 -10 -35 -11 -20 -1 -41 -5 -47 -8 -7 -5 -9 -2 -5 9 3 9
0 18 -9 21 -18 7 -46 -3 -39 -15 3 -4 -8 -7 -25 -6 -16 1 -30 5 -30 10 0 4 -9
7 -21 7 -12 0 -17 -4 -13 -11 5 -8 1 -8 -13 0 -17 8 -26 5 -52 -21 -17 -17
-31 -34 -31 -39 0 -5 -5 -9 -11 -9 -6 0 -9 7 -5 15 3 8 2 15 -3 15 -5 0 -11
-8 -14 -19 -2 -10 -19 -26 -37 -35 -40 -19 -43 -20 -34 -3 10 15 -26 -12 -43
-33 -7 -8 -13 -10 -13 -5 0 6 13 25 29 43 32 35 24 44 -11 12 -25 -23 -42 -16
-34 12 5 20 4 20 -15 -1 -22 -23 -30 -27 -27 -10 5 21 -23 21 -29 0 -3 -12
-10 -21 -15 -21 -5 0 -6 5 -3 10 10 16 -11 12 -25 -5 -10 -12 -10 -18 0 -30
11 -13 10 -14 -3 -9 -8 3 -18 12 -21 21 -4 8 -13 13 -21 9 -20 -7 -19 4 3 20
16 13 16 14 -3 7 -11 -3 -24 -11 -28 -17 -6 -8 -10 -7 -14 2 -2 6 -11 12 -19
12 -9 0 -13 4 -10 9 4 5 3 16 0 25 -5 12 -10 13 -24 4 -15 -9 -25 -6 -58 20
-43 34 -63 42 -41 16 7 -9 14 -26 16 -37 3 -18 0 -16 -15 8 -28 46 -75 81
-137 104 -31 12 -60 21 -65 21 -16 0 -84 50 -112 83 -15 18 -27 29 -28 25 -1
-20 -40 30 -40 51 0 13 -11 34 -24 46 -13 12 -25 27 -27 33 -2 7 -18 14 -34
15 -24 2 -31 -2 -33 -20 -3 -18 1 -20 20 -15 21 5 22 4 8 -14 -8 -10 -16 -21
-17 -23 -1 -2 -11 2 -20 10 -16 13 -17 12 -5 -3 8 -9 11 -22 7 -28 -5 -8 -12
-4 -22 10 -8 12 -21 19 -29 16 -7 -3 -22 8 -34 25 -17 22 -28 29 -48 26 -15
-2 -31 -12 -37 -23 -11 -21 -45 -21 -45 0 0 6 -14 27 -31 46 -28 30 -32 32
-41 16 -8 -15 -12 -14 -40 9 l-31 27 -12 -22 c-10 -19 -13 -20 -24 -6 -7 8
-11 19 -8 23 3 4 -5 8 -16 9 -12 0 -35 4 -51 9 -30 8 -30 5 -9 -51 4 -12 -35
-26 -49 -18 -4 3 -8 14 -8 26 0 15 -3 18 -12 11 -7 -6 -26 -13 -41 -15 -22 -4
-27 -2 -22 10 5 13 3 13 -11 1 -10 -8 -12 -15 -5 -17 6 -2 8 -9 4 -15 -4 -7 0
-8 12 -3 15 5 16 4 6 -8 -14 -16 -40 -12 -98 16 -47 23 -51 29 -28 48 9 7 13
15 10 18 -3 3 -14 -5 -25 -18 -11 -13 -20 -19 -20 -15 0 4 -9 0 -19 -9 -12
-11 -25 -15 -33 -10 -7 5 -23 7 -35 5 -17 -2 -23 3 -23 16 0 15 2 16 10 3 8
-12 10 -11 10 8 0 31 -11 28 -61 -18 -41 -37 -89 -53 -89 -30 0 6 3 9 8 8 4
-1 18 2 31 6 23 8 24 9 7 22 -10 7 -25 10 -34 7 -14 -4 -14 -3 -3 5 7 5 10 15
6 22 -4 7 -2 16 6 21 12 7 12 10 0 21 -8 7 -11 8 -8 2z m540 -88 c4 -10 1 -13
-9 -9 -7 3 -14 9 -14 14 0 14 17 10 23 -5z m-403 -20 c0 -3 -4 -8 -10 -11 -5
-3 -10 -1 -10 4 0 6 5 11 10 11 6 0 10 -2 10 -4z m447 -2 c-3 -3 -12 -4 -19
-1 -8 3 -5 6 6 6 11 1 17 -2 13 -5z m-321 -49 c-8 -8 -17 -15 -20 -15 -3 0 -3
7 0 15 4 8 13 15 21 15 12 0 12 -2 -1 -15z m104 5 c0 -5 -4 -10 -10 -10 -5 0
-10 5 -10 10 0 6 5 10 10 10 6 0 10 -4 10 -10z m-26 -18 c2 -4 0 -14 -6 -22
-8 -12 -9 -12 -4 3 7 21 -7 22 -24 2 -7 -9 -15 -13 -18 -10 -6 5 27 34 40 35
4 0 9 -4 12 -8z m-276 -108 c-4 -3 -12 5 -18 18 -12 22 -12 22 6 6 10 -10 15
-20 12 -24z m95 18 c9 -9 13 -23 9 -30 -6 -8 -14 -2 -26 18 -19 33 -9 40 17
12z m-102 -39 c13 -15 12 -15 -8 -4 -24 12 -29 21 -14 21 5 0 15 -7 22 -17z
m99 -25 c0 -12 -14 -10 -36 7 -16 13 -17 16 -4 25 11 7 18 5 28 -7 6 -9 12
-20 12 -25z m955 33 c3 -5 1 -12 -5 -16 -5 -3 -10 1 -10 9 0 18 6 21 15 7z
m49 -7 c9 -24 7 -27 -9 -10 -17 17 -19 26 -6 26 5 0 12 -7 15 -16z m-1070 -39
c-6 -16 -24 -21 -24 -7 0 11 11 22 21 22 5 0 6 -7 3 -15z m144 -11 c0 -19 -3
-23 -10 -13 -7 10 -8 8 -5 -9 4 -19 3 -21 -8 -12 -12 10 -12 16 2 36 19 30 21
30 21 -2z m1015 -21 c-7 -2 -19 -2 -25 0 -7 3 -2 5 12 5 14 0 19 -2 13 -5z
m-1002 -26 c-10 -9 -11 -8 -5 6 3 10 9 15 12 12 3 -3 0 -11 -7 -18z m50 1
c-10 -27 -31 -36 -31 -13 0 9 5 13 10 10 6 -3 10 1 10 9 0 9 4 16 10 16 5 0 6
-9 1 -22z m259 11 c0 7 4 10 10 6 5 -3 7 -12 4 -20 -5 -11 -10 -12 -25 -2 -10
6 -19 16 -19 21 0 4 7 3 15 -4 11 -9 15 -9 15 -1z m-369 -22 c-10 -9 -11 -8
-5 6 3 10 9 15 12 12 3 -3 0 -11 -7 -18z m733 -20 c3 3 6 -1 6 -10 0 -9 6 -17
13 -17 8 -1 6 -5 -4 -13 -21 -16 -7 -57 21 -64 19 -5 29 -23 12 -23 -5 0 -18
-9 -30 -20 l-21 -20 0 27 c-1 16 -2 38 -3 51 -2 23 -3 23 -28 -7 l-27 -30 0
30 c0 31 -13 52 -20 31 -3 -6 -9 -9 -15 -6 -7 5 -9 -2 -4 -21 6 -25 6 -26 -9
-11 -13 12 -14 20 -5 37 7 11 14 18 17 16 5 -5 43 28 43 38 0 2 -7 2 -15 -1
-8 -4 -15 -1 -15 4 0 14 40 20 61 10 9 -4 19 -4 23 -1z m420 -7 c49 -22 75
-55 58 -72 -6 -6 -48 -9 -94 -8 -121 2 -114 0 -110 33 4 23 14 33 46 48 51 23
44 23 100 -1z m-708 -2 c4 -7 3 -8 -4 -4 -7 4 -12 2 -12 -4 0 -6 -5 -8 -10 -5
-11 7 -4 25 10 25 5 0 12 -5 16 -12z m-320 -45 c-11 -11 -17 4 -9 23 7 18 8
18 11 1 2 -10 1 -21 -2 -24z m59 17 c-3 -5 -11 -10 -16 -10 -6 0 -7 5 -4 10 3
6 11 10 16 10 6 0 7 -4 4 -10z m2055 -10 c0 -5 -4 -10 -10 -10 -5 0 -10 5 -10
10 0 6 5 10 10 10 6 0 10 -4 10 -10z m-345 -20 c-3 -5 -11 -10 -16 -10 -6 0
-7 5 -4 10 3 6 11 10 16 10 6 0 7 -4 4 -10z m40 0 c3 -5 -1 -10 -10 -10 -9 0
-13 5 -10 10 3 6 8 10 10 10 2 0 7 -4 10 -10z m115 0 c13 -8 13 -10 -2 -10 -9
0 -20 5 -23 10 -8 13 5 13 25 0z m-1326 -68 c-16 -11 -25 -42 -12 -42 13 0
-22 -29 -36 -30 -11 0 2 49 21 79 11 17 18 20 26 12 8 -8 9 -14 1 -19z m636 5
c10 -4 8 -6 -7 -6 -16 -1 -23 5 -23 17 0 10 3 13 8 6 4 -6 14 -14 22 -17z m75
-27 c31 -19 51 -47 41 -57 -2 -3 -7 4 -10 15 -4 11 -26 30 -49 41 -23 12 -36
21 -28 21 7 0 28 -9 46 -20z m-1215 -10 c-8 -5 -17 -7 -19 -4 -3 3 1 9 9 14 8
5 17 7 19 4 3 -3 -1 -9 -9 -14z m440 -5 c0 -8 -4 -17 -10 -20 -6 -4 -10 5 -10
20 0 15 4 24 10 20 6 -3 10 -12 10 -20z m-203 8 c-4 -3 3 -17 15 -30 18 -19
19 -23 5 -23 -9 0 -17 -6 -17 -14 0 -12 -29 -32 -35 -24 -1 2 -5 20 -8 41 -6
37 7 53 16 20 3 -11 5 -7 6 10 0 15 6 27 13 27 6 0 8 -3 5 -7z m315 -25 c-7
-7 -12 -8 -12 -2 0 14 12 26 19 19 2 -3 -1 -11 -7 -17z m-112 -37 c0 -6 -4
-13 -10 -16 -5 -3 -10 1 -10 9 0 9 5 16 10 16 6 0 10 -4 10 -9z m60 -30 c0 -5
9 -12 19 -16 13 -4 22 -19 27 -48 10 -57 6 -85 -17 -108 -18 -18 -19 -18 -30
24 -17 64 -31 90 -22 42 4 -22 8 -57 9 -78 0 -21 4 -40 7 -44 8 -7 -1 -23 -14
-23 -5 0 -9 11 -9 24 0 30 -17 44 -22 19 -2 -10 -7 15 -11 56 -6 56 -4 77 5
83 10 6 9 8 -3 8 -24 0 -28 -18 -18 -75 11 -71 11 -75 -6 -69 -8 4 -15 2 -15
-4 0 -6 5 -12 10 -14 17 -5 0 -68 -21 -79 -16 -8 -19 -6 -19 13 0 19 2 20 11
8 8 -11 9 3 6 53 -3 38 -1 70 5 73 5 4 7 21 4 39 -5 22 -2 36 9 45 8 7 16 24
16 39 2 23 2 24 6 4 5 -24 22 -32 24 -10 0 10 2 10 6 0 2 -7 9 -13 15 -13 12
0 -1 42 -16 52 -6 4 1 8 17 8 15 0 27 -4 27 -9z m740 5 c0 -2 -8 -10 -17 -17
-16 -13 -17 -12 -4 4 13 16 21 21 21 13z m-1460 -46 c0 -5 -2 -10 -4 -10 -3 0
-8 5 -11 10 -3 6 -1 10 4 10 6 0 11 -4 11 -10z m-40 -40 c0 -5 -2 -10 -4 -10
-3 0 -8 5 -11 10 -3 6 -1 10 4 10 6 0 11 -4 11 -10z m627 -37 c-3 -10 -5 -4
-5 12 0 17 2 24 5 18 2 -7 2 -21 0 -30z m-738 13 c10 -12 8 -13 -8 -9 -12 3
-18 9 -15 14 7 12 10 11 23 -5z m139 -21 c-3 -3 -9 2 -12 12 -6 14 -5 15 5 6
7 -7 10 -15 7 -18z m558 -13 c-4 -3 -11 0 -16 8 -15 24 -11 33 6 15 9 -9 13
-19 10 -23z m-134 -24 c-15 -15 -24 -6 -16 16 5 12 10 14 17 7 8 -8 8 -14 -1
-23z m-537 2 c3 -5 -1 -10 -10 -10 -9 0 -13 5 -10 10 3 6 8 10 10 10 2 0 7 -4
10 -10z m475 -20 c0 -5 -2 -10 -4 -10 -3 0 -8 5 -11 10 -3 6 -1 10 4 10 6 0
11 -4 11 -10z m430 -2 c0 -7 3 -24 6 -38 l7 -25 -22 21 c-14 13 -19 27 -15 37
7 20 24 23 24 5z m1438 3 c7 -1 10 -6 6 -12 -4 -7 -10 -7 -16 -1 -6 6 -17 8
-24 5 -8 -3 -14 -1 -14 5 0 6 8 9 18 7 9 -2 23 -4 30 -4z m-366 -23 c-7 -7
-12 -8 -12 -2 0 6 3 14 7 17 3 4 9 5 12 2 2 -3 -1 -11 -7 -17z m-2026 -7 c9 8
14 8 14 1 0 -6 -4 -14 -10 -17 -5 -3 -10 -16 -10 -27 0 -30 -6 -19 -13 22 -3
19 -3 29 0 22 4 -10 8 -10 19 -1z m538 -25 c-3 -9 -12 -16 -20 -16 -11 0 -10
4 4 18 20 22 25 21 16 -2z m396 -18 c0 -4 -4 -8 -10 -8 -5 0 -10 4 -10 9 0 5
-3 18 -6 28 -5 16 -4 16 10 -1 9 -11 16 -23 16 -28z m420 -34 c0 -38 -9 -46
-61 -50 -42 -4 -52 12 -24 36 8 7 15 18 15 24 0 6 7 22 16 34 15 22 17 22 35
6 11 -10 19 -30 19 -50z m-613 -6 c-2 -13 -4 -5 -4 17 -1 22 1 32 4 23 2 -10
2 -28 0 -40z m108 33 c-3 -6 -11 -11 -16 -11 -5 0 -4 6 3 14 14 16 24 13 13
-3z m35 -46 c14 -16 10 -18 -14 -9 -9 3 -16 10 -16 15 0 14 16 11 30 -6z m990
-5 c0 -5 -8 -10 -17 -10 -15 0 -16 2 -3 10 19 12 20 12 20 0z m424 -41 c-24
-27 -30 -15 -9 18 12 17 20 23 23 15 2 -7 -4 -22 -14 -33z m-1554 21 c0 -5 -5
-10 -11 -10 -5 0 -7 5 -4 10 3 6 8 10 11 10 2 0 4 -4 4 -10z m867 -30 c-1 -12
-5 -16 -10 -11 -5 5 -6 14 -3 20 11 16 15 13 13 -9z m568 0 c-3 -5 -13 -6 -21
-3 -12 4 -13 8 -3 14 15 9 32 2 24 -11z m-1758 -62 c-3 -8 -6 -5 -6 6 -1 11 2
17 5 13 3 -3 4 -12 1 -19z m1013 -34 c0 -8 -5 -12 -10 -9 -6 4 -8 11 -5 16 9
14 15 11 15 -7z m-1060 -39 c0 -5 -5 -3 -10 5 -5 8 -10 20 -10 25 0 6 5 3 10
-5 5 -8 10 -19 10 -25z m-320 -135 c0 -5 -4 -10 -10 -10 -5 0 -10 5 -10 10 0
6 5 10 10 10 6 0 10 -4 10 -10z m2339 -64 c-9 -8 -10 -7 -5 7 3 10 7 24 7 30
1 7 3 4 6 -7 3 -10 -1 -23 -8 -30z m-2312 19 c7 -21 -6 -33 -16 -16 -6 9 -11
10 -15 2 -4 -6 -12 -11 -18 -11 -6 0 -3 9 7 20 22 24 34 25 42 5z m1223 -36
c0 -6 -4 -7 -10 -4 -5 3 -10 11 -10 16 0 6 5 7 10 4 6 -3 10 -11 10 -16z m159
-64 c0 -11 -7 0 -15 25 -17 56 -17 64 1 25 8 -16 14 -39 14 -50z m435 -10 c-4
-8 -10 -15 -15 -15 -4 0 -6 7 -3 15 4 8 10 15 15 15 4 0 6 -7 3 -15z m-1294
-19 c0 -2 -7 -7 -16 -10 -8 -3 -12 -2 -9 4 6 10 25 14 25 6z m-60 -20 c0 -3
-4 -8 -10 -11 -5 -3 -10 -1 -10 4 0 6 5 11 10 11 6 0 10 -2 10 -4z m943 -40
c9 -22 -18 -40 -33 -22 -6 9 -9 20 -5 26 9 15 32 12 38 -4z m600 -23 c3 -5 1
-19 -4 -32 -12 -31 -34 -13 -24 18 6 21 20 28 28 14z m-2083 -33 c0 -4 -6 -10
-14 -13 -12 -5 -14 2 -7 31 2 7 21 -10 21 -18z m145 -160 c3 -5 1 -10 -4 -10
-6 0 -11 5 -11 10 0 6 2 10 4 10 3 0 8 -4 11 -10z m-54 -93 c-6 -8 -8 -17 -4
-21 4 -4 -1 -4 -10 0 -15 5 -17 3 -11 -20 8 -32 -3 -35 -15 -4 -7 19 -3 26 18
40 32 21 36 22 22 5z m59 -3 c0 -8 -5 -12 -10 -9 -6 4 -8 11 -5 16 9 14 15 11
15 -7z m-152 -30 c0 -14 4 -29 9 -33 13 -8 13 -42 0 -34 -5 3 -14 -1 -19 -8
-7 -11 -9 -9 -5 7 2 12 0 28 -5 37 -10 18 0 70 12 62 4 -2 8 -16 8 -31z m212
22 c0 -3 -4 -8 -10 -11 -5 -3 -10 -1 -10 4 0 6 5 11 10 11 6 0 10 -2 10 -4z
m-94 -31 c1 -14 -2 -25 -7 -25 -5 0 -9 11 -9 25 0 33 15 33 16 0z m233 4 c-22
-14 -33 -10 -19 6 7 8 17 12 22 9 6 -4 5 -10 -3 -15z m-179 -3 c0 -3 -4 -8
-10 -11 -5 -3 -10 -1 -10 4 0 6 5 11 10 11 6 0 10 -2 10 -4z m35 -16 c3 -5 1
-10 -5 -10 -6 0 -9 -4 -6 -9 3 -5 0 -11 -7 -14 -10 -4 -13 2 -9 19 5 25 16 31
27 14z m-25 -83 c0 -5 -4 -5 -10 -2 -5 3 -10 1 -10 -4 0 -6 -4 -11 -10 -11 -5
0 -8 10 -6 23 3 12 5 29 6 37 1 15 29 -26 30 -43z m63 28 c4 -8 2 -17 -3 -20
-6 -4 -10 3 -10 14 0 25 6 27 13 6z m-163 -66 c0 -6 -4 -7 -10 -4 -5 3 -10 11
-10 16 0 6 5 7 10 4 6 -3 10 -11 10 -16z m-83 -11 c2 -17 0 -19 -7 -8 -5 8 -6
18 -4 22 8 12 10 10 11 -14z m84 -51 c-10 -9 -11 -8 -5 6 3 10 9 15 12 12 3
-3 0 -11 -7 -18z m85 -14 c-10 -10 -19 5 -10 18 6 11 8 11 12 0 2 -7 1 -15 -2
-18z m-166 7 c0 -5 -4 -10 -10 -10 -5 0 -10 -7 -10 -16 0 -8 -4 -12 -10 -9 -6
4 -5 13 3 25 13 21 27 26 27 10z m160 -74 c0 -5 -6 -3 -13 3 -8 6 -17 8 -20 4
-4 -3 -7 7 -7 23 l0 29 20 -25 c11 -14 20 -29 20 -34z m-114 -52 c-18 -18 -21
-34 -5 -34 6 0 3 -7 -5 -16 -9 -8 -16 -24 -16 -34 0 -10 -3 -21 -7 -23 -11 -7
-10 55 1 72 6 9 5 12 -2 7 -6 -4 -10 1 -9 13 0 11 4 18 9 15 9 -6 30 31 22 39
-3 3 -2 11 2 18 5 9 10 5 17 -14 6 -20 5 -31 -7 -43z m260 36 c8 0 14 -4 14
-10 0 -13 -17 -13 -26 1 -4 8 -9 7 -15 -2 -7 -11 -9 -11 -9 2 0 19 13 34 18
20 2 -6 10 -11 18 -11z m-354 -17 c-3 -16 -7 -22 -10 -15 -4 13 4 42 11 42 2
0 2 -12 -1 -27z m48 20 c0 -5 -5 -15 -10 -23 -8 -12 -10 -11 -10 8 0 12 5 22
10 22 6 0 10 -3 10 -7z m66 -140 c-10 -10 -19 5 -10 18 6 11 8 11 12 0 2 -7 1
-15 -2 -18z m-102 -43 c-6 -28 -8 -30 -17 -14 -7 13 -7 19 1 22 7 2 12 11 12
20 0 8 2 13 5 10 3 -3 2 -20 -1 -38z"/>
<path d="M1307 1953 c-3 -5 -2 -15 2 -22 5 -7 11 -9 14 -4 3 5 2 15 -2 22 -5
7 -11 9 -14 4z"/>
<path d="M1343 1945 c0 -8 8 -15 18 -15 12 0 16 5 13 15 -4 8 -12 15 -18 15
-7 0 -13 -7 -13 -15z"/>
<path d="M1390 1943 c0 -13 5 -23 10 -23 13 0 13 11 0 30 -8 12 -10 11 -10 -7z"/>
<path d="M1276 1935 c4 -8 8 -15 10 -15 2 0 4 7 4 15 0 8 -4 15 -10 15 -5 0
-7 -7 -4 -15z"/>
<path d="M1423 1935 c0 -8 4 -15 9 -15 4 0 8 4 8 9 0 6 -4 12 -8 15 -5 3 -9
-1 -9 -9z"/>
<path d="M940 1710 c0 -5 5 -10 11 -10 5 0 7 5 4 10 -3 6 -8 10 -11 10 -2 0
-4 -4 -4 -10z"/>
<path d="M89 2393 c-13 -16 -12 -17 4 -4 9 7 17 15 17 17 0 8 -8 3 -21 -13z"/>
<path d="M220 2352 c-13 -14 -12 -15 2 -9 9 3 18 1 20 -5 2 -5 10 -2 18 8 8
11 10 16 6 12 -5 -4 -14 -4 -20 1 -7 6 -17 3 -26 -7z"/>
<path d="M354 2355 c3 -23 12 -26 13 -5 1 11 -2 20 -7 20 -4 0 -7 -7 -6 -15z"/>
<path d="M465 2340 c-3 -6 1 -7 9 -4 18 7 21 14 7 14 -6 0 -13 -4 -16 -10z"/>
<path d="M522 2320 c0 -14 2 -19 5 -12 2 6 2 18 0 25 -3 6 -5 1 -5 -13z"/>
<path d="M834 2287 c3 -10 6 -23 6 -28 0 -4 7 -6 15 -3 8 4 15 10 15 16 0 5
-4 7 -9 3 -6 -3 -15 3 -21 12 -11 17 -11 17 -6 0z"/>
<path d="M40 2245 c7 -8 17 -15 22 -15 6 0 5 7 -2 15 -7 8 -17 15 -22 15 -6 0
-5 -7 2 -15z"/>
<path d="M1340 2060 c0 -6 7 -10 15 -10 8 0 15 2 15 4 0 2 -7 6 -15 10 -8 3
-15 1 -15 -4z"/>
<path d="M1390 2046 c0 -2 7 -6 15 -10 8 -3 15 -1 15 4 0 6 -7 10 -15 10 -8 0
-15 -2 -15 -4z"/>
<path d="M1500 1996 c0 -2 8 -10 18 -17 15 -13 16 -12 3 4 -13 16 -21 21 -21
13z"/>
<path d="M2220 1975 c0 -9 6 -12 15 -9 8 4 15 7 15 9 0 2 -7 5 -15 9 -9 3 -15
0 -15 -9z"/>
<path d="M1866 1914 c-5 -14 -4 -15 9 -4 17 14 19 20 6 20 -5 0 -12 -7 -15
-16z"/>
<path d="M2010 1885 c-7 -8 -8 -15 -2 -15 5 0 15 7 22 15 7 8 8 15 2 15 -5 0
-15 -7 -22 -15z"/>
<path d="M1698 1883 c6 -2 18 -2 25 0 6 3 1 5 -13 5 -14 0 -19 -2 -12 -5z"/>
<path d="M1682 528 c-19 -19 -14 -73 9 -102 16 -20 19 -30 11 -38 -8 -8 -13
-7 -18 5 -9 25 -24 10 -24 -23 0 -41 16 -46 45 -14 37 40 41 68 15 104 -12 17
-19 36 -16 43 3 7 7 3 12 -11 9 -31 33 -11 26 23 -5 27 -38 35 -60 13z"/>
<path d="M989 493 c-43 -18 -78 -98 -58 -135 26 -48 50 -61 107 -59 62 2 82
13 82 45 0 12 5 27 11 33 18 18 1 33 -37 33 -37 0 -58 -25 -34 -40 22 -13 3
-40 -28 -40 -38 0 -52 17 -52 62 0 61 58 102 90 63 22 -26 40 -18 40 18 0 34
0 34 -46 33 -26 -1 -59 -6 -75 -13z m111 -20 c0 -25 -1 -25 -18 -10 -10 10
-27 18 -38 18 -10 1 -3 5 16 9 19 4 36 8 38 9 1 0 2 -11 2 -26z m-84 8 c-3 -5
-15 -11 -26 -14 -17 -4 -19 -3 -9 9 12 15 44 20 35 5z m104 -90 c0 -6 -4 -13
-10 -16 -5 -3 -10 -18 -11 -33 l0 -27 -10 25 c-7 17 -7 26 0 28 6 2 11 10 11
18 0 8 5 14 10 14 6 0 10 -4 10 -9z m-140 -59 c0 -7 -4 -10 -10 -7 -5 3 -10
16 -10 28 0 18 2 19 10 7 5 -8 10 -21 10 -28z m95 -12 c-3 -5 -14 -10 -23 -9
-14 0 -13 2 3 9 27 11 27 11 20 0z"/>
<path d="M1150 496 c0 -8 5 -18 10 -21 6 -3 10 -30 10 -58 0 -85 51 -133 109
-102 33 16 41 39 41 112 0 28 5 55 10 58 18 11 0 25 -31 25 -30 0 -38 -17 -18
-37 17 -17 7 -104 -14 -117 -15 -9 -22 -7 -38 13 -21 26 -26 90 -8 108 18 18
1 33 -37 33 -23 0 -34 -5 -34 -14z m70 0 c0 -3 -4 -8 -10 -11 -5 -3 -10 -1
-10 4 0 6 5 11 10 11 6 0 10 -2 10 -4z m-5 -146 c3 -18 2 -20 -10 -10 -8 6
-11 18 -8 26 7 18 12 13 18 -16z"/>
<path d="M1337 293 c-10 -9 -8 -51 2 -57 5 -3 14 1 21 9 11 13 10 14 -5 9 -15
-6 -17 -3 -13 19 6 29 5 31 -5 20z"/>
<path d="M1270 283 c0 -5 11 -20 25 -33 14 -13 25 -19 25 -13 0 5 -11 20 -25
33 -14 13 -25 19 -25 13z"/>
<path d="M1238 250 c-3 -16 -1 -30 4 -30 4 0 8 14 8 30 0 17 -2 30 -4 30 -2 0
-6 -13 -8 -30z"/>
<path d="M1194 251 c20 -22 26 -25 26 -13 0 4 -10 13 -22 21 -23 14 -23 14 -4
-8z"/>
<path d="M1386 254 c-5 -14 -4 -15 9 -4 17 14 19 20 6 20 -5 0 -12 -7 -15 -16z"/>
<path d="M801 234 c0 -11 3 -14 6 -6 3 7 2 16 -1 19 -3 4 -6 -2 -5 -13z"/>
<path d="M810 207 c-8 -12 -18 -30 -22 -39 -11 -26 -84 -24 -243 6 -33 6 36
-17 102 -34 31 -8 47 -19 57 -39 15 -27 18 -71 6 -71 -4 0 -7 -7 -7 -15 0 -9
10 -15 24 -15 18 0 23 6 24 25 2 38 3 43 12 51 4 5 5 -11 1 -35 -7 -41 -6 -43
17 -39 20 2 25 10 30 45 3 24 2 43 -3 43 -14 0 -9 73 7 104 19 35 15 44 -5 13z
m-43 -104 c-3 -10 -5 -4 -5 12 0 17 2 24 5 18 2 -7 2 -21 0 -30z"/>
<path d="M276 191 c-3 -5 1 -11 9 -14 9 -4 12 -1 8 9 -6 16 -10 17 -17 5z"/>
<path d="M480 190 c8 -5 20 -10 25 -10 6 0 3 5 -5 10 -8 5 -19 10 -25 10 -5 0
-3 -5 5 -10z"/>
<path d="M280 140 c0 -5 5 -10 10 -10 6 0 10 5 10 10 0 6 -4 10 -10 10 -5 0
-10 -4 -10 -10z"/>
<path d="M335 19 c-4 -6 -5 -12 -2 -15 2 -3 7 2 10 11 7 17 1 20 -8 4z"/>
</g>
</svg>
